<?xml version="1.0" encoding="utf-8"?>
<!-- Generator: Adobe Illustrator 24.0.2, SVG Export Plug-In . SVG Version: 6.00 Build 0)  -->
<svg version="1.1" id="Capa_1" xmlns="http://www.w3.org/2000/svg" xmlns:xlink="http://www.w3.org/1999/xlink" x="0px" y="0px"
	 viewBox="0 0 109 129" style="enable-background:new 0 0 109 129;" xml:space="preserve">
	<style type="text/css">
		.st0{fill:#54C28B;}
	</style>
	<g>
		<g>
			<rect x="91.9" y="42.1" class="st0" width="16.9" height="86.4"/>
		</g>
		<g>
			<rect x="64.2" y="60.7" class="st0" width="16.9" height="67.8"/>
		</g>
		<g>
			<rect x="36" y="74.9" class="st0" width="16.9" height="53.6"/>
		</g>
		<g>
			<rect x="8.2" y="85.3" class="st0" width="16.9" height="43.2"/>
		</g>
		<g>
			<path d="M103,123.7H86.4c-0.4,0-0.8-0.3-0.8-0.8V36.1c0-0.4,0.3-0.8,0.8-0.8H103c0.4,0,0.8,0.3,0.8,0.8V123
				C103.8,123.4,103.5,123.7,103,123.7z M87.2,122.2h15.1V36.9H87.2V122.2z"/>
		</g>
		<g>
			<path d="M75.1,123.7H58.4c-0.4,0-0.8-0.3-0.8-0.8v-68c0-0.4,0.3-0.8,0.8-0.8h16.6c0.4,0,0.8,0.3,0.8,0.8v68
				C75.8,123.4,75.5,123.7,75.1,123.7z M59.2,122.2h15.1V55.7H59.2V122.2z"/>
		</g>
		<g>
			<path d="M47.1,123.7H30.4c-0.4,0-0.8-0.3-0.8-0.8v-54c0-0.4,0.3-0.8,0.8-0.8h16.6c0.4,0,0.8,0.3,0.8,0.8v54
				C47.8,123.4,47.5,123.7,47.1,123.7z M31.2,122.2h15.1V69.7H31.2V122.2z"/>
		</g>
		<g>
			<path d="M18.8,123.7H2.2c-0.4,0-0.8-0.3-0.8-0.8V79.3c0-0.4,0.3-0.8,0.8-0.8h16.6c0.4,0,0.8,0.3,0.8,0.8V123
				C19.6,123.4,19.3,123.7,18.8,123.7z M3,122.2h15.1V80.1H3V122.2z"/>
		</g>
		<g>
			<path d="M6.5,52.4c-3.1,0-4.8-0.2-4.9-0.2c-0.5,0-0.9-0.5-0.8-1c0-0.5,0.5-0.9,1-0.8c0.1,0,14.9,1.4,33.9-4
				c17.5-5,42.1-16.9,60.5-45.2c0.3-0.4,0.8-0.5,1.3-0.3c0.4,0.3,0.5,0.8,0.3,1.3c-8.3,12.8-18.5,23.3-30.3,31.4
				C58,40,47.5,44.9,36.1,48.1C23.4,51.8,12.5,52.4,6.5,52.4z"/>
		</g>
		<g>
			<path d="M97.2,20.6c-0.5,0-0.9-0.4-0.9-0.9V2.3H79.2c-0.5,0-0.9-0.4-0.9-0.9s0.4-0.9,0.9-0.9h18.1c0.5,0,0.9,0.4,0.9,0.9v18.3
				C98.2,20.2,97.8,20.6,97.2,20.6z"/>
		</g>
	</g>
</svg>
