<svg width="109" height="129" viewBox="0 0 109 129" fill="none" xmlns="http://www.w3.org/2000/svg">
<g id="logo 1">
<g id="Group">
<g id="color-bar">
<g id="Group_2">
<path id="Vector" d="M108.8 42.1H91.9V128.5H108.8V42.1Z" fill="#54C28B"/>
</g>
<g id="Group_3">
<path id="Vector_2" d="M81.1 60.7H64.2V128.5H81.1V60.7Z" fill="#54C28B"/>
</g>
<g id="Group_4">
<path id="Vector_3" d="M52.9 74.9H36V128.5H52.9V74.9Z" fill="#54C28B"/>
</g>
<g id="Group_5">
<path id="Vector_4" d="M25.1 85.3H8.20001V128.5H25.1V85.3Z" fill="#54C28B"/>
</g>
<g id="Group_6">
<path id="Vector_5" d="M103 123.7H86.4C86 123.7 85.6 123.4 85.6 122.9V36.1C85.6 35.7 85.9 35.3 86.4 35.3H103C103.4 35.3 103.8 35.6 103.8 36.1V123C103.8 123.4 103.5 123.7 103 123.7ZM87.2 122.2H102.3V36.9H87.2V122.2Z" fill="black"/>
</g>
<g id="Group_7">
<path id="Vector_6" d="M75.1 123.7H58.4C58 123.7 57.6 123.4 57.6 122.9V54.9C57.6 54.5 57.9 54.1 58.4 54.1H75C75.4 54.1 75.8 54.4 75.8 54.9V122.9C75.8 123.4 75.5 123.7 75.1 123.7ZM59.2 122.2H74.3V55.7H59.2V122.2Z" fill="black"/>
</g>
<g id="Group_8">
<path id="Vector_7" d="M47.1 123.7H30.4C30 123.7 29.6 123.4 29.6 122.9V68.9C29.6 68.5 29.9 68.1 30.4 68.1H47C47.4 68.1 47.8 68.4 47.8 68.9V122.9C47.8 123.4 47.5 123.7 47.1 123.7ZM31.2 122.2H46.3V69.7H31.2V122.2Z" fill="black"/>
</g>
<g id="Group_9">
<path id="Vector_8" d="M18.8 123.7H2.19999C1.79999 123.7 1.39999 123.4 1.39999 122.9V79.3C1.39999 78.9 1.69999 78.5 2.19999 78.5H18.8C19.2 78.5 19.6 78.8 19.6 79.3V123C19.6 123.4 19.3 123.7 18.8 123.7ZM2.99999 122.2H18.1V80.1H2.99999V122.2Z" fill="black"/>
</g>
</g>
<g id="arrow">
<g id="Group_10">
<path id="Vector_9" d="M6.5 52.4C3.4 52.4 1.7 52.2 1.6 52.2C1.1 52.2 0.700003 51.7 0.800003 51.2C0.800003 50.7 1.3 50.3 1.8 50.4C1.9 50.4 16.7 51.8 35.7 46.4C53.2 41.4 77.8 29.5 96.2 1.2C96.5 0.800003 97 0.700003 97.5 0.900003C97.9 1.2 98 1.7 97.8 2.2C89.5 15 79.3 25.5 67.5 33.6C58 40 47.5 44.9 36.1 48.1C23.4 51.8 12.5 52.4 6.5 52.4Z" fill="black"/>
</g>
<g id="Group_11">
<path id="Vector_10" d="M97.2 20.6C96.7 20.6 96.3 20.2 96.3 19.7V2.3H79.2C78.7 2.3 78.3 1.9 78.3 1.4C78.3 0.9 78.7 0.5 79.2 0.5H97.3C97.8 0.5 98.2 0.9 98.2 1.4V19.7C98.2 20.2 97.8 20.6 97.2 20.6Z" fill="black"/>
</g>
</g>
</g>
</g>
</svg>
